<svg width="101" height="49" viewBox="0 0 101 49" fill="none" xmlns="http://www.w3.org/2000/svg">
<path d="M73.3409 11.2996L76.0306 6.64145C76.1162 6.49285 76.3064 6.44243 76.4542 6.528C76.6028 6.61357 76.6536 6.80304 76.5677 6.95163L73.8784 11.6097C73.8215 11.7091 73.7164 11.7648 73.6099 11.7648C73.5571 11.7648 73.504 11.7515 73.4548 11.7232C73.3058 11.638 73.255 11.4482 73.3409 11.2996ZM60.3151 19.04C60.3464 19.0488 60.3778 19.053 60.4087 19.053C60.5623 19.053 60.7028 18.9514 60.7452 18.7971L64.1042 6.6701C64.1561 6.48368 64.0469 6.29116 63.8612 6.23997C63.6721 6.18687 63.4823 6.29804 63.4311 6.48292L60.0722 18.6099C60.0202 18.7963 60.1295 18.9888 60.3151 19.04ZM74.0557 27.1285C74.124 27.198 74.2146 27.2328 74.3047 27.2328C74.3937 27.2328 74.4816 27.1995 74.55 27.1323L83.5224 18.3096C83.6603 18.1748 83.6618 17.9536 83.5266 17.8157C83.3914 17.677 83.1702 17.677 83.0323 17.8115L74.0599 26.6338C73.922 26.7694 73.9204 26.9906 74.0557 27.1285ZM52.0922 5.99969C52.2637 5.99969 52.4024 5.86102 52.4024 5.68951V0.310567C52.4024 0.139049 52.2637 0 52.0922 0C51.9207 0 51.782 0.138667 51.782 0.310567V5.68951C51.7816 5.86064 51.9207 5.99969 52.0922 5.99969ZM81.9103 41.0035C81.9512 41.1613 82.0933 41.2656 82.2488 41.2656C82.2774 41.2656 82.3069 41.2621 82.3363 41.2545L94.5186 38.1003C94.7054 38.0518 94.8181 37.8608 94.77 37.6744C94.7215 37.488 94.5332 37.3745 94.3441 37.423L82.1621 40.5772C81.9741 40.6261 81.8618 40.8171 81.9103 41.0035ZM89.3616 27.517C89.4144 27.517 89.4678 27.5036 89.5167 27.475L94.1748 24.7857C94.3234 24.7001 94.3742 24.5103 94.2883 24.3621C94.2027 24.2135 94.0125 24.1626 93.8646 24.2486L89.2065 26.9383C89.0579 27.0238 89.0071 27.2133 89.0931 27.3619C89.15 27.4612 89.2547 27.517 89.3616 27.517ZM100.506 47.7103H79.113C79.0828 43.226 77.9719 38.9957 76.0325 35.2601L84.9297 30.1234C85.0783 30.0378 85.1291 29.8483 85.0431 29.6997C84.9575 29.5511 84.7673 29.4999 84.6195 29.5863L75.7452 34.7097C73.5048 30.6226 70.2548 27.1682 66.3366 24.6715L71.2296 16.1964C71.3156 16.0478 71.2648 15.8583 71.1162 15.7728C70.9683 15.6872 70.7781 15.7376 70.6925 15.8862L65.8125 24.3384C61.8764 21.9532 57.2966 20.534 52.4016 20.3912V10.9852C52.4016 10.8137 52.2629 10.6746 52.0914 10.6746C51.9199 10.6746 51.7812 10.8133 51.7812 10.9852V20.3755C51.7167 20.3751 51.6533 20.3705 51.5887 20.3705C46.698 20.3705 42.1044 21.6583 38.1198 23.904L33.4907 15.8862C33.4051 15.7373 33.2149 15.6868 33.0671 15.7728C32.9185 15.8583 32.8677 16.0478 32.9536 16.1964L37.5823 24.2131C33.4758 26.651 30.0577 30.1257 27.6839 34.2742L19.5637 29.5863C19.4163 29.5007 19.2257 29.5511 19.1401 29.6997C19.0542 29.8483 19.105 30.0378 19.2536 30.1234L27.3756 34.8128C25.2907 38.6553 24.0977 43.0472 24.066 47.7103H0.310564C0.139046 47.7103 0 47.8489 0 48.0208C0 48.1924 0.139046 48.3314 0.310564 48.3314H100.505C100.676 48.3314 100.816 48.1924 100.816 48.0208C100.816 47.8493 100.678 47.7103 100.506 47.7103ZM43.9453 18.655C43.9862 18.8127 44.1283 18.917 44.2837 18.917C44.3124 18.917 44.3418 18.9136 44.3712 18.9059C44.5584 18.8574 44.6711 18.6664 44.6226 18.48L41.4684 6.29765C41.4199 6.11047 41.2308 5.99816 41.0425 6.0463C40.8553 6.09481 40.7426 6.28581 40.7911 6.47223L43.9453 18.655ZM9.85139 37.3852L21.978 40.7441C22.0093 40.7529 22.0406 40.7571 22.0716 40.7571C22.2251 40.7571 22.3657 40.6555 22.4081 40.5012C22.4601 40.3147 22.3508 40.1222 22.1652 40.071L10.0382 36.7121C9.85063 36.6594 9.65849 36.7702 9.60806 36.9551C9.55649 37.1415 9.66574 37.334 9.85139 37.3852ZM10.0092 24.7861L14.668 27.4753C14.7173 27.504 14.7704 27.5174 14.8231 27.5174C14.9297 27.5174 15.0348 27.4616 15.0917 27.3623C15.1776 27.2137 15.1268 27.0238 14.9782 26.9386L10.3193 24.249C10.1715 24.1634 9.9809 24.2138 9.89571 24.3624C9.80976 24.5106 9.86095 24.7001 10.0092 24.7861ZM30.3067 11.6101C30.3636 11.7094 30.4687 11.7652 30.5753 11.7652C30.628 11.7652 30.6815 11.7518 30.7304 11.7236C30.879 11.638 30.9298 11.4485 30.8438 11.2999L28.1538 6.64184C28.0682 6.49324 27.878 6.44166 27.7301 6.52838C27.5815 6.61395 27.5307 6.80342 27.6167 6.95202L30.3067 11.6101ZM30.0027 26.7568C30.071 26.8263 30.1616 26.8611 30.2517 26.8611C30.3403 26.8611 30.4286 26.8275 30.4966 26.761C30.6345 26.6258 30.6356 26.4046 30.5008 26.2667L21.6785 17.2943C21.5429 17.1564 21.3217 17.1556 21.1842 17.2901C21.0463 17.4253 21.0448 17.6465 21.18 17.7844L30.0027 26.7568Z" fill="#FFF7DA"/>
<path d="M27.7172 47.8986C27.7172 34.7349 38.4262 24.0255 51.5891 24.0255C64.7528 24.0255 75.4626 34.7349 75.4626 47.8986C75.4626 48.001 75.4561 48.1022 75.4549 48.2042H76.1586C76.1597 48.1018 76.1662 48.001 76.1662 47.8986C76.1662 34.3471 65.1413 23.3222 51.5895 23.3222C38.0384 23.3222 27.0143 34.3471 27.0143 47.8986C27.0143 48.001 27.0208 48.1022 27.0219 48.2042H27.7256C27.7237 48.1022 27.7172 48.001 27.7172 47.8986Z" fill="#76A182"/>
<path d="M65.6608 40.8408C65.6956 40.7896 65.7292 40.7361 65.7617 40.6795C65.7647 40.6742 65.7678 40.6685 65.7708 40.6627C65.8033 40.6054 65.8346 40.5458 65.8644 40.4843C65.8667 40.4798 65.869 40.4752 65.8713 40.4706C65.9015 40.4079 65.9305 40.3438 65.9584 40.2781C65.9626 40.2678 65.9672 40.2578 65.9714 40.2479C65.9981 40.1841 66.0237 40.1195 66.0482 40.0542C66.0524 40.0428 66.057 40.0309 66.0612 40.0195C66.0856 39.9538 66.1085 39.8881 66.1307 39.8223C66.1341 39.8124 66.1372 39.8029 66.1402 39.7933C66.1628 39.7249 66.1842 39.6569 66.2044 39.5901C66.2052 39.5874 66.2059 39.5851 66.2067 39.5828C66.2266 39.516 66.2449 39.4503 66.2621 39.3861C66.264 39.3785 66.2663 39.3708 66.2682 39.3636C66.2846 39.3013 66.2999 39.2409 66.314 39.1821C66.3163 39.1718 66.319 39.1619 66.3213 39.1519C66.3347 39.095 66.3469 39.0408 66.358 38.9888C66.3599 38.9797 66.3618 38.9709 66.3637 38.9621C66.3744 38.9105 66.3843 38.8612 66.3924 38.8158C66.3935 38.8104 66.3939 38.8058 66.395 38.8005C66.4031 38.755 66.4099 38.713 66.4153 38.676C66.4157 38.6741 66.416 38.6721 66.416 38.6702C66.4214 38.6328 66.4248 38.6011 66.4275 38.5736C66.4279 38.5694 66.4283 38.5652 66.4287 38.5614C66.4306 38.5361 66.4313 38.5163 66.4306 38.501C66.4306 38.4999 66.4309 38.4968 66.4306 38.4957C66.4302 38.4953 66.4302 38.4953 66.4302 38.4953C66.4279 38.4655 66.4195 38.4601 66.4038 38.4888C66.235 38.8001 65.9729 39.3666 65.4385 39.9289C65.113 40.2712 64.9316 40.3736 64.8388 40.4015C64.7383 40.2872 64.7265 40.4198 64.5263 40.2074C64.396 40.0687 64.3414 40.0099 64.3173 39.9843C64.3678 39.919 64.3964 39.7956 64.4678 39.6229C64.5943 39.317 64.5786 38.8318 64.5313 38.7684C64.5248 38.7596 64.5186 38.7558 64.5129 38.755C64.511 38.7547 64.5087 38.7562 64.5068 38.7566C64.503 38.7577 64.4984 38.7592 64.4942 38.7634C64.4915 38.7657 64.4888 38.7696 64.4862 38.773C64.482 38.7787 64.477 38.7856 64.4717 38.7936C64.4682 38.799 64.464 38.8058 64.4602 38.8123C64.4258 38.8712 64.3731 38.9705 64.2726 39.0954C64.1049 39.3032 63.8895 39.3899 63.7554 39.4545C63.7382 39.4625 63.7142 39.4766 63.6901 39.4934C63.6847 39.4911 63.6798 39.4881 63.6744 39.4858C63.3409 39.3468 63.2989 39.4117 63.0854 39.1065C62.8718 38.8013 62.8375 38.035 62.8375 38.035C62.8375 38.035 63.1855 37.9578 63.3237 37.5017C63.3322 37.4742 63.3398 37.4459 63.3467 37.4173C63.349 37.4077 63.3509 37.3978 63.3532 37.3882C63.3577 37.3684 63.362 37.3489 63.3662 37.3287C63.3684 37.3168 63.3704 37.3046 63.3727 37.2927C63.3761 37.2744 63.3791 37.2561 63.3822 37.2373C63.3841 37.2244 63.386 37.211 63.3879 37.198C63.3906 37.18 63.3929 37.1621 63.3952 37.1441C63.3967 37.1308 63.3982 37.1178 63.3998 37.1044C63.4017 37.0861 63.4036 37.0677 63.4051 37.0498C63.4063 37.0372 63.4074 37.0246 63.4082 37.012C63.4097 36.9936 63.4108 36.9753 63.412 36.9573C63.4128 36.9451 63.4135 36.9329 63.4139 36.9207C63.4151 36.9023 63.4154 36.8844 63.4162 36.866C63.4166 36.855 63.417 36.8439 63.4173 36.8328C63.4177 36.8133 63.4181 36.7946 63.4181 36.7759C63.4181 36.7671 63.4185 36.7583 63.4185 36.7499C63.4185 36.7278 63.4181 36.7064 63.4177 36.6857C63.4177 36.6815 63.4177 36.6766 63.4177 36.6724C63.417 36.6475 63.4158 36.6242 63.4147 36.6021C63.4143 36.5975 63.4139 36.5933 63.4135 36.5887C63.4124 36.5719 63.4112 36.5559 63.4097 36.5413C63.4089 36.5349 63.4082 36.5291 63.4074 36.523C63.4063 36.5115 63.4047 36.5005 63.4032 36.4905C63.4024 36.4844 63.4013 36.4795 63.4002 36.4741C63.3986 36.4661 63.3971 36.4581 63.3956 36.4516C63.3944 36.447 63.3933 36.4432 63.3921 36.439C63.3906 36.4336 63.3887 36.429 63.3872 36.4252C63.3856 36.4222 63.3845 36.4199 63.383 36.418C63.3822 36.4168 63.3814 36.4145 63.3803 36.4134C63.3803 36.4141 63.3803 36.4149 63.3803 36.4157C63.3749 36.4107 63.3696 36.4099 63.3642 36.4187C63.3054 36.5112 62.8344 36.6002 62.3435 36.8752C61.9505 37.096 61.8435 37.1827 61.8164 37.2091V37.2087C61.8141 37.2106 61.8148 37.2102 61.8137 37.2114C61.8091 37.216 61.8064 37.219 61.8064 37.219C61.8064 37.219 61.7935 37.2106 61.7705 37.1953C61.7377 37.1736 61.6831 37.1369 61.6143 37.0895C61.5719 37.0601 61.5245 37.0269 61.473 36.9898C61.4718 36.989 61.471 36.9883 61.4699 36.9875C61.3641 36.9115 61.2426 36.8214 61.1204 36.7239C61.1196 36.7232 61.1185 36.7224 61.1177 36.7217C61.0581 36.6743 60.9981 36.6246 60.9397 36.575C60.8419 36.4913 60.7483 36.4054 60.6673 36.3209C60.2559 35.8931 57.4417 33.9709 56.4791 33.8735C55.5164 33.7757 52.075 34.2837 50.3984 34.3395C48.7218 34.3949 48.4181 34.0255 46.3465 34.1577C44.2749 34.2895 43.5339 34.8021 43.0067 35.2662C42.4792 35.7304 42.0341 36.7121 41.6395 37.7351C41.2449 38.7581 41.102 40.2792 40.6647 40.861C40.2273 41.4428 39.9369 41.5696 40.0317 41.6223C40.1268 41.675 40.6952 41.3354 40.9569 41.0069C41.2186 40.678 41.4222 39.8785 41.5773 39.291C41.6865 38.8769 41.7098 38.7031 41.7144 38.6355C41.7144 38.6378 41.7144 38.6381 41.7144 38.6408C41.7148 38.6366 41.7144 38.6359 41.7148 38.6324C41.7155 38.6229 41.7159 38.6152 41.7159 38.6099C41.7159 38.6068 41.7159 38.6045 41.7159 38.6026C41.7159 38.5977 41.7155 38.595 41.7155 38.595C41.7155 38.595 41.7461 38.7566 41.7782 38.9712C41.787 39.0285 41.7954 39.0893 41.8038 39.1523C41.8049 39.1603 41.8057 39.1684 41.8068 39.1764C41.8149 39.239 41.8225 39.3028 41.829 39.3659C41.8298 39.3735 41.8305 39.3811 41.8313 39.3884C41.8378 39.4533 41.8431 39.5175 41.8466 39.5786C41.8469 39.5836 41.8473 39.5889 41.8477 39.5939C41.8511 39.6592 41.8531 39.7211 41.8519 39.7765C41.8431 40.1894 41.8603 40.7724 41.0745 41.7289C40.2888 42.6854 39.9763 42.666 40.042 43.0292C40.0466 43.0552 40.0535 43.0835 40.0615 43.1125C40.0641 43.1221 40.0672 43.132 40.0699 43.1415C40.076 43.1626 40.0825 43.1843 40.0897 43.2069C40.0913 43.2115 40.0924 43.2153 40.0939 43.2199C40.2215 43.6087 40.4973 44.1997 40.377 44.7608C40.2349 45.424 40.0527 45.683 40.1272 45.9259C40.2013 46.1693 40.7277 46.277 41.1815 46.2606C41.1842 46.2606 41.1865 46.2606 41.1891 46.2606C41.3381 46.3351 41.9398 46.3133 42.2179 46.2965C42.2966 46.2919 42.316 46.248 42.2985 46.1849C42.3069 46.1846 42.316 46.1838 42.3241 46.1834C42.4696 46.1739 42.5705 46.0371 42.308 45.8614C42.1109 45.7292 41.8408 45.4954 41.6151 45.508C41.5746 45.4446 41.5452 45.3736 41.5387 45.2922C41.5238 45.1054 41.3244 44.7291 41.7992 43.6951C42.1468 42.9383 42.9811 42.2316 43.4044 41.9062C43.4288 41.8874 43.4525 41.8695 43.4739 41.8531C43.4865 41.8439 43.4987 41.8343 43.5102 41.8259C43.5316 41.8099 43.551 41.7958 43.5682 41.7832C43.5755 41.7778 43.5843 41.7713 43.5908 41.7667C43.608 41.7541 43.6225 41.7442 43.6332 41.7365C43.6359 41.7346 43.6404 41.7316 43.6427 41.7297C43.6534 41.7224 43.6607 41.7171 43.6607 41.7171C43.6607 41.7171 44.1458 42.3053 44.2856 43.3375C44.4254 44.3701 44.0618 44.7024 44.4491 45.0111C44.8369 45.3197 45.4866 45.4385 45.6807 45.6043C45.8748 45.7701 45.8495 46.3954 46.0711 46.5539C46.0845 46.5635 46.1009 46.5723 46.1192 46.5811C46.1257 46.5841 46.1337 46.5868 46.1406 46.5895C46.1536 46.5948 46.167 46.6002 46.1819 46.6051C46.1922 46.6086 46.2033 46.6116 46.2144 46.6147C46.2285 46.6189 46.2422 46.6227 46.2575 46.6265C46.2701 46.6296 46.2839 46.6326 46.2972 46.6357C46.3068 46.638 46.3152 46.6403 46.3248 46.6422C46.3244 46.6418 46.3244 46.6418 46.324 46.6414C46.4856 46.675 46.6911 46.6972 46.8893 46.7094C47.1132 46.7522 47.593 46.7343 47.8329 46.7197C47.9681 46.7117 47.9368 46.5952 47.8447 46.4546C47.8841 46.4447 47.9238 46.4344 47.962 46.4229C48.0693 46.4195 48.1687 46.4145 48.2439 46.4095C48.3895 46.4 48.501 46.2468 48.2279 46.0875C47.9864 45.947 47.5151 45.7689 47.4379 45.7567C47.3783 45.6719 47.0024 45.4309 46.7167 45.0917C46.6991 45.0706 46.6815 45.0493 46.6647 45.0275C46.6548 45.0149 46.6452 45.0023 46.6357 44.9893C46.6197 44.9675 46.6044 44.9453 46.5895 44.9232C46.5807 44.9098 46.5719 44.8968 46.5635 44.8831C46.5482 44.859 46.5345 44.8342 46.5207 44.8094C46.5142 44.7975 46.507 44.7857 46.5009 44.7734C46.4818 44.736 46.4646 44.6982 46.4497 44.6596C46.2354 44.0969 45.9061 43.03 45.9271 42.6606C45.9481 42.2912 46.2289 41.7446 46.4917 41.2151C46.7545 40.6857 46.7507 40.5764 46.787 40.5665C46.7893 40.5657 46.7931 40.5695 46.7988 40.5772C46.8023 40.5818 46.808 40.5898 46.8126 40.597C46.9317 40.7701 47.5025 41.6911 49.6012 41.8806C51.9298 42.091 53.7482 41.549 53.7482 41.549C53.7482 41.549 53.752 41.5566 53.7569 41.5673C53.7573 41.5685 53.7577 41.5692 53.7581 41.57C53.7638 41.5818 53.7718 41.6002 53.7814 41.6212C53.7829 41.6246 53.7844 41.6281 53.786 41.6319C53.7959 41.6544 53.8074 41.6808 53.82 41.711C53.8219 41.7155 53.8238 41.7201 53.8257 41.7247C53.8391 41.7564 53.8528 41.7916 53.8677 41.8298C53.9487 42.0402 54.0438 42.3367 54.0633 42.6071C54.0981 43.0926 53.8169 43.4185 53.9468 44.0156C54.0763 44.6126 54.4067 45.2063 54.3842 45.4847C54.3617 45.7628 54.0706 46.1368 54.3177 46.2927C54.4358 46.3671 54.8147 46.4397 55.1795 46.473C55.1879 46.484 55.199 46.4951 55.2135 46.5066C55.3239 46.5941 55.9699 46.5708 56.261 46.5532C56.3442 46.5482 56.3633 46.5012 56.345 46.4336C56.3958 46.4313 56.4428 46.429 56.4825 46.4264C56.5054 46.4248 56.5234 46.4206 56.539 46.4153C56.5406 46.4172 56.5417 46.4195 56.5436 46.4218C56.6422 46.5352 57.0238 46.6116 57.2137 46.6009C57.4035 46.5902 57.3034 46.2632 57.2347 46.0841C57.2251 46.0589 57.2098 46.0379 57.1919 46.0191C57.2843 45.7689 57.4662 45.461 57.6954 45.2246C57.9517 44.9606 58.213 44.4564 58.2745 44.0148L58.2749 44.0152C58.2752 44.0114 58.2756 44.0075 58.276 44.0041C58.2791 43.9816 58.281 43.959 58.2825 43.9369C58.284 43.9212 58.2856 43.9055 58.2863 43.8903C58.2875 43.8677 58.2871 43.8456 58.2871 43.8234C58.2871 43.8089 58.2875 43.7944 58.2871 43.7802C58.2859 43.7566 58.2833 43.7336 58.2802 43.7107C58.2787 43.6993 58.2783 43.6874 58.2764 43.676C58.271 43.6423 58.2638 43.6095 58.2542 43.5785C58.1064 43.0934 57.7435 42.0486 57.6213 41.8271C57.499 41.6059 57.4016 41.361 57.4016 41.361C57.4199 41.3324 57.4413 41.3072 57.4654 41.2839C57.8119 40.9454 58.6832 41.146 59.2493 40.9351C59.8544 40.7093 59.7757 40.5596 59.8659 40.7216C59.9453 40.8644 60.2265 42.0311 61.382 42.6121C61.5406 42.6999 61.7106 42.7706 61.8951 42.8111C62.2026 42.8974 62.4008 42.9425 62.525 42.9601C62.6805 42.9991 62.8294 43.0373 62.9693 43.0735C62.9826 43.077 62.996 43.0804 63.009 43.0839C63.0945 43.106 63.1759 43.127 63.2546 43.1477C63.2791 43.1541 63.3039 43.1603 63.328 43.1664C63.3673 43.1763 63.4051 43.1859 63.4425 43.1954C63.4983 43.2095 63.5514 43.2221 63.6022 43.2344C63.6293 43.2409 63.6572 43.2477 63.6828 43.2535C63.7142 43.2607 63.7428 43.2665 63.7722 43.2726C63.7936 43.2772 63.8154 43.2817 63.8356 43.2856C63.8624 43.2909 63.8876 43.2951 63.9124 43.2997C63.9338 43.3035 63.9544 43.3066 63.9743 43.3092C63.9945 43.3123 64.0156 43.3153 64.0343 43.3173C64.061 43.3203 64.0851 43.3218 64.108 43.3226C64.1175 43.323 64.1282 43.3241 64.1374 43.3241C64.1687 43.3245 64.1955 43.3222 64.2192 43.318C64.2207 43.3176 64.2234 43.318 64.2249 43.3176C64.2245 43.3173 64.2241 43.3169 64.2237 43.3169C64.2604 43.3096 64.2883 43.2974 64.3047 43.2775C64.4472 43.1011 64.4671 43.1125 64.4487 43.0755C64.4304 43.0384 64.2524 42.9307 64.0224 42.7309C63.7928 42.5311 63.7134 42.3989 63.7134 42.3989C63.7134 42.3989 64.0973 42.7966 64.2455 42.8841C64.3941 42.9716 64.4785 43.0797 64.5442 43.048C64.6099 43.0162 64.6596 42.7977 64.6776 42.7859C64.6955 42.7741 64.9557 42.6205 64.945 42.3489C64.9343 42.0773 65.0955 41.8267 65.2112 41.6158C65.3117 41.4332 65.2765 41.2877 65.2857 41.2212C65.3197 41.201 65.3529 41.1773 65.3858 41.1502C65.3911 41.146 65.3965 41.1422 65.4018 41.1376C65.4408 41.1043 65.4786 41.0661 65.5153 41.0245C65.5218 41.0172 65.5283 41.01 65.5348 41.0023C65.5711 40.9599 65.6062 40.9145 65.6402 40.8656C65.6494 40.8579 65.6551 40.8492 65.6608 40.8408ZM56.6747 44.4541C56.4111 44.8021 56.1043 44.8399 56.0944 45.1608C56.0913 45.2559 56.1231 45.3976 56.1754 45.5527H56.175C56.175 45.5527 56.1689 45.722 56.2014 45.8996C56.1383 45.8549 56.0703 45.811 55.9978 45.7697C55.9428 45.7384 55.8942 45.7177 55.8507 45.7051C55.809 45.5848 55.7552 45.4588 55.683 45.3296C55.4404 44.8972 55.5172 44.1137 55.6062 43.6867C55.6146 43.6469 55.6226 43.6064 55.6303 43.5663C55.6318 43.5579 55.6337 43.5495 55.6352 43.5411C55.6425 43.5025 55.6498 43.4643 55.657 43.4265C55.6639 43.3902 55.6704 43.3547 55.6769 43.3196C55.6788 43.3104 55.6803 43.3008 55.6822 43.2917C55.6891 43.2554 55.6956 43.2206 55.7025 43.1866C55.7036 43.1797 55.7051 43.1729 55.7063 43.1664C55.7128 43.1328 55.7197 43.1007 55.7262 43.0709C55.7273 43.0663 55.7281 43.0625 55.7292 43.0583C55.7353 43.0308 55.7414 43.0052 55.7472 42.9819C55.7479 42.9788 55.7487 42.9754 55.7494 42.9723C55.7559 42.9482 55.7621 42.928 55.7682 42.9097C55.7693 42.9059 55.7708 42.9024 55.772 42.899C55.7781 42.8818 55.7846 42.8676 55.7907 42.8573C55.7915 42.8562 55.7922 42.8554 55.7934 42.8543C55.798 42.8474 55.8029 42.8428 55.8079 42.8405C55.8094 42.8398 55.811 42.839 55.8125 42.8386C55.8182 42.8375 55.8239 42.8382 55.8297 42.8443C55.9015 42.9158 57.046 43.598 57.0444 43.8104C57.0441 43.8368 57.0425 43.8612 57.0391 43.8842C57.0379 43.8918 57.0356 43.8987 57.0341 43.9059C57.0311 43.9208 57.0284 43.9361 57.0238 43.9506C57.0207 43.9602 57.0162 43.9693 57.0123 43.9785C57.0074 43.9903 57.0036 44.0022 56.9974 44.014C56.9925 44.024 56.986 44.0343 56.9803 44.0442C56.9222 44.1431 56.8252 44.2551 56.6747 44.4541Z" fill="#76A182"/>
</svg>
