<svg xmlns="http://www.w3.org/2000/svg" version="1.1" viewBox="-5.0 -10.0 110.0 135.0">
 <g>
  <path d="m74.309 45.98c0.21094 0 0.41016-0.078125 0.55859-0.23047 0.14844-0.14844 0.23828-0.35938 0.23828-0.57031v-12.531c0-0.44141-0.35156-0.78906-0.78125-0.80078l-20.73-0.37891c-0.19922 0-0.42188 0.078125-0.57031 0.23047-0.14844 0.14844-0.23828 0.35938-0.23828 0.57031v12.531c0 0.44141 0.35156 0.78906 0.78125 0.80078l20.73 0.39063h0.019531zm-0.80078-10.289-9.2305-0.17188v-2.2617l9.2305 0.17188zm-10.82-2.4609v2.2617l-8.3086-0.14844v-2.2617zm-8.3086 3.6992 8.3086 0.14844v7.0781l-8.3086-0.16016v-7.0703zm9.9102 7.2617v-7.0781l9.2305 0.17188v7.0781z"/>
  <path d="m26.859 69.078c-1.2695 0-2.4102 0.5-3.2617 1.3086-0.019531 0.019531-0.050781 0.039062-0.070312 0.058593-0.87891 0.87109-1.4297 2.0703-1.4297 3.3984 0 2.6289 2.1406 4.7695 4.7695 4.7695 2.6289 0 4.7695-2.1406 4.7695-4.7695s-2.1406-4.7695-4.7695-4.7695zm0 7.2305c-1.3516 0-2.4492-1.1016-2.4492-2.4492 0-1.3516 1.1016-2.4492 2.4492-2.4492 1.3516 0 2.4492 1.1016 2.4492 2.4492 0 1.3516-1.1016 2.4492-2.4492 2.4492z"/>
  <path d="m45.371 69.078c-2.6289 0-4.7695 2.1406-4.7695 4.7695s2.1406 4.7695 4.7695 4.7695 4.7695-2.1406 4.7695-4.7695-2.1406-4.7695-4.7695-4.7695zm0 7.2305c-1.3516 0-2.4492-1.1016-2.4492-2.4492 0-1.3516 1.1016-2.4492 2.4492-2.4492 1.3516 0 2.4492 1.1016 2.4492 2.4492 0 1.3516-1.1016 2.4492-2.4492 2.4492z"/>
  <path d="m70.031 66.551c-2.6289 0-4.7695 2.1406-4.7695 4.7695 0 2.6289 2.1406 4.7695 4.7695 4.7695s4.7695-2.1406 4.7695-4.7695c0-2.6289-2.1406-4.7695-4.7695-4.7695zm0 7.2188c-1.3516 0-2.4492-1.1016-2.4492-2.4492 0-1.3516 1.1016-2.4492 2.4492-2.4492 1.3516 0 2.4492 1.1016 2.4492 2.4492 0 1.3516-1.1016 2.4492-2.4492 2.4492z"/>
  <path d="m87.539 62.031-3.6094-1.8594v-6.3594c0-0.51172-0.32813-0.96094-0.82031-1.1094-0.039063-0.011719-0.23047-0.070313-0.53125-0.14844l-0.55078-21.32c3.1797-1.7695 5-4.0195 5.2383-6.5586 0.078125-0.80078-0.19922-1.5703-0.78906-2.2305-3.5391-3.8516-20.539-3.7812-22.5-3.75-8.6094 0.32031-23.09 1.5391-23.359 6.0391-0.19141 3.2617 2.6797 5.3203 4.8203 6.3984v3.5391h-16l3.3086-7.1484h1.6797c0.64062 0 1.1602-0.51953 1.1602-1.1602v-4.6289c0-0.64062-0.51953-1.1602-1.1602-1.1602h-11.07c-0.64062 0-1.1602 0.51953-1.1602 1.1602v4.6289c0 0.64062 0.51953 1.1602 1.1602 1.1602h1.1484l2.6211 7.1484h-10.34-0.070312c-0.03125 0-0.050782 0-0.078125 0.011719-0.12891 0.019531-0.25 0.050781-0.35938 0.10938h-0.019532c-0.12109 0.058593-0.23047 0.16016-0.32812 0.26172 0 0-0.019532 0.011718-0.03125 0.019531 0 0 0 0.019531-0.019532 0.03125-0.019531 0.03125-0.050781 0.050781-0.070312 0.089843-0.17188 0.26953-4.2695 6.8008-3.8086 14.25 0.37109 5.9883 2.5508 9.7109 3.5117 11.07l0.23047 10.801c0.011718 0.62891 0.53125 1.1289 1.1602 1.1289h0.89844c-0.070312 0.44922-0.12109 0.91016-0.12109 1.3789 0 5.0586 4.1211 9.1797 9.1797 9.1797s9.1797-4.1211 9.1797-9.1797c0-0.51953-0.050781-1.0391-0.14062-1.5391h0.37109c-0.050781 0.37109-0.078125 0.75-0.078125 1.1406 0 5.0586 4.1211 9.1797 9.1797 9.1797s9.1797-4.1211 9.1797-9.1797c0-0.44141-0.039062-0.87109-0.10156-1.2891l4.9492-0.039063c0.42187 5.9219 5.3594 10.621 11.379 10.621 6.0195 0 11.07-4.8008 11.391-10.809h0.60938c0.5-0.011718 0.92188-0.33984 1.0703-0.78906h3.0195c0.80078 0 1.4414-0.64844 1.4414-1.4414v-6.3984c0-0.53906-0.30078-1.0391-0.78125-1.2812zm-64.93-15.789c-0.21094-4.2891-1.8594-7.3789-3.2305-9.2305h26.078l0.51953 19.738c-2.5312 1.1094-4.3594 2.0508-5.0312 2.4102h-22.262c1.5508-2.5703 4.1602-7.7305 3.9102-12.922zm25.672 9.5391-0.53125-19.941v-5.1094c2.5586-0.46094 9.8711-1.6484 15.539-1.4609 5.7812 0.19922 13.73 1.4492 16.422 1.8906l0.53906 20.891c-2.8516-0.51172-7.7891-1.0703-14.602-0.73047-5.9414 0.28906-12.48 2.4492-17.371 4.4492zm-5.3516-30.898c0.089843-1.4219 9.3398-3.4219 21.109-3.8594 6.8906-0.070313 18.602 0.67187 20.738 3 0.21094 0.23047 0.19922 0.37109 0.19922 0.44141-0.19922 2.0508-2.0312 3.5898-3.8086 4.6289-0.039063-0.011719-0.070313-0.03125-0.10938-0.039062-0.42188-0.070313-10.488-1.8281-17.672-2.0781-7.2305-0.25-16.609 1.5898-17.012 1.6719-0.14844 0.03125-0.28125 0.089843-0.39844 0.17187-1.3984-0.78906-3.1406-2.1406-3.0391-3.9219zm-18.41-1.9688h8.75v2.3086h-8.75zm5.6719 4.6289-1.7891 3.8711-1.4219-3.8711zm-13.148 10.25c1.1914 1.4414 3.0508 4.3281 3.25 8.5508 0.21875 4.5781-2.2188 9.3398-3.6211 11.66-0.89062-1.6406-2.1016-4.5586-2.3594-8.6797-0.28906-4.8398 1.6289-9.3789 2.7305-11.539zm9.8203 42.922c-3.7812 0-6.8594-3.0781-6.8594-6.8594s3.0781-6.8594 6.8594-6.8594 6.8594 3.0781 6.8594 6.8594-3.0781 6.8594-6.8594 6.8594zm18.512-0.39844c-3.7812 0-6.8594-3.0781-6.8594-6.8594s3.0781-6.8594 6.8594-6.8594 6.8594 3.0781 6.8594 6.8594-3.0781 6.8594-6.8594 6.8594zm0-16.039c-3.8281 0-7.1211 2.3594-8.4883 5.7109h-1.6992c-1.4609-3.1289-4.6289-5.3086-8.3203-5.3086-3.6914 0-6.9609 2.25-8.3906 5.4688h-0.44141l-0.19141-8.6719h23.398c0.19141 0 0.37891-0.050781 0.55078-0.14062 0.12891-0.070313 13.34-7.1602 23.961-7.6914 8.3906-0.42188 13.879 0.60156 15.852 1.0586v13.012c-1.5117-4.5391-5.7891-7.8203-10.828-7.8203-5.7891 0-10.57 4.3281-11.309 9.9219l-5.6484 0.050782c-1.3984-3.2695-4.6602-5.5703-8.4414-5.5703zm25.41 15.578c-4.7109 0-8.5391-3.8281-8.5391-8.5391 0-4.7109 3.8281-8.5391 8.5391-8.5391 4.7109 0 8.5391 3.8281 8.5391 8.5391 0 4.7109-3.8281 8.5391-8.5391 8.5391zm14.66-11.602h-1.5117v-4.8516l1.5117 0.76953z"/>
 </g>
<text x="0.0" y="117.5" font-size="5.0" font-weight="bold" font-family="Arbeit Regular, Helvetica, Arial-Unicode, Arial, Sans-serif" fill="#000000">Created by NicheBeom</text><text x="0.0" y="122.5" font-size="5.0" font-weight="bold" font-family="Arbeit Regular, Helvetica, Arial-Unicode, Arial, Sans-serif" fill="#000000">from Noun Project</text></svg>