<svg xmlns="http://www.w3.org/2000/svg" version="1.1" viewBox="-5.0 -10.0 110.0 135.0">
 <g>
  <path d="m66.172 31.68c0.39844 0 0.80078-0.15234 1.1055-0.45703 2.9727-2.9688 10.074-6.2812 15.52-6.2812 0.86328 0 1.5625-0.69922 1.5625-1.5625 0-0.86328-0.69922-1.5625-1.5625-1.5625-6.5039 0-14.266 3.7344-17.727 7.1953-0.60937 0.60938-0.60937 1.5977 0 2.2109 0.30469 0.30469 0.70313 0.45703 1.1055 0.45703z"/>
  <path d="m17.492 51.332c5.4023 5.3867 13.668 6.8047 20.5 3.6445l3.5391 3.9609-16.48 14.664c-1.7969 1.6016-2.8281 3.8086-2.8984 6.2188-0.070313 2.4102 0.82812 4.6719 2.5312 6.375 1.6406 1.6406 3.8047 2.5352 6.1133 2.5352 0.085937 0 0.17578 0 0.26172-0.003907 2.4102-0.070312 4.6172-1.1016 6.2188-2.8984l14.102-15.836 14.094 15.828c1.5742 1.7812 3.8438 2.8438 6.2227 2.9141 0.085938 0 0.16797 0.003906 0.25 0.003906 2.2891 0 4.5078-0.91797 6.1172-2.5391 1.6836-1.6719 2.6094-3.9961 2.5391-6.375-0.070312-2.3789-1.1328-4.6484-2.9062-6.2188l-16.477-14.664 3.4688-3.8984c7.5195 3.75 16.688 2.3086 22.703-3.7109 3.8086-3.8086 7.1172-10.117 8.6289-16.465 1.7852-7.4844 0.78125-13.59-2.8203-17.191-7.6836-7.6875-25.863-1.9844-33.656 5.8125-6.0156 6.0156-7.457 15.188-3.7031 22.715l-4.4727 3.9766-4.5273-4.0391c3.168-6.8398 1.7461-15.109-3.6953-20.547l-14.398-13.059c-0.95312-0.85938-2.1562-1.3125-3.3906-1.2578-1.2812 0.023437-2.4688 0.53906-3.3398 1.4297-1.8984 1.9023-1.8984 4.9961 0 6.8984l12.312 12.316c0.50781 0.51172 0.60547 1.3125 0.22656 1.7812-0.23047 0.28516-0.55469 0.44922-0.90625 0.46875-0.35938 0.023437-0.68359-0.10938-0.93359-0.35938l-12.453-12.453c-1.8945-1.8945-4.9922-1.8984-6.9766 0.066406l-0.0625 0.074219c-0.92969 0.91797-1.4414 2.1406-1.4453 3.4453-0.003906 1.3125 0.50781 2.5469 1.4414 3.4805l12.438 12.438c0.25781 0.25781 0.39062 0.59375 0.37109 0.94922-0.019532 0.35156-0.1875 0.67188-0.48047 0.90625-0.46875 0.38281-1.2539 0.28125-1.7578-0.23438l-12.336-12.336c-1.8477-1.8047-5.0078-1.832-6.9023 0.015624-1.8516 1.8516-1.9219 4.8086-0.16406 6.7305l13.105 14.449zm58.125 24.613c1.1523 1.0195 1.8125 2.4297 1.8594 3.9727 0.046876 1.5391-0.53125 2.9844-1.625 4.0742-1.082 1.0898-2.5195 1.6719-4.0664 1.6172-1.543-0.046875-2.9531-0.70312-3.9766-1.8633l-14.34-16.102 5.668-6.3672zm-16.461-30.184c-3.7891-6.4922-2.7188-14.746 2.6016-20.062 4.5547-4.5547 13.766-8.5586 21.094-8.5586 3.2969 0 6.2109 0.8125 8.1445 2.7461 2.7656 2.7656 3.4883 7.9609 1.9883 14.258-1.3672 5.7305-4.4297 11.609-7.8008 14.98-5.3203 5.3203-13.566 6.3906-20.055 2.6094-0.64453-0.375-1.4609-0.24609-1.9531 0.3125l-28.227 31.711c-1.0234 1.1484-2.4375 1.8086-3.9766 1.8516-1.5547 0.046875-2.9883-0.53125-4.0781-1.6172-1.0859-1.0859-1.6602-2.5352-1.6172-4.0742 0.046875-1.543 0.70312-2.9531 1.8516-3.9766l17.617-15.672c0.011718-0.011719 0.03125-0.015625 0.042968-0.027343 0.011719-0.011719 0.015626-0.023438 0.027344-0.035157l14.031-12.484c0.55469-0.49219 0.6875-1.3125 0.3125-1.9531zm-52.406-13.387c0.70703-0.6875 1.8516-0.65625 2.5078-0.015625l12.312 12.312c1.6211 1.6484 4.2383 1.8477 5.9414 0.46094 0.97266-0.78125 1.5664-1.9375 1.6328-3.1641 0.066407-1.2344-0.40234-2.4453-1.2812-3.3281l-12.438-12.438c-0.33984-0.33984-0.52734-0.78906-0.52344-1.2578 0-0.46484 0.1875-0.90234 0.58594-1.3008l0.0625-0.074219c0.69531-0.6875 1.8203-0.6875 2.5039-0.007812l12.453 12.453c0.87109 0.87109 2.0781 1.332 3.3008 1.2695 1.2305-0.0625 2.3867-0.65234 3.1719-1.6172 1.4023-1.7227 1.2227-4.2812-0.42969-5.957l-12.32-12.324c-0.68359-0.68359-0.68359-1.7969 0.015625-2.4961 0.30469-0.3125 0.72266-0.48828 1.207-0.5 0.40625-0.019531 0.85938 0.14453 1.2031 0.45312l14.336 12.996c4.7148 4.7148 5.7617 12.078 2.5508 17.902-0.35156 0.64062-0.21484 1.4336 0.32812 1.9219l5.1562 4.6016-5.1562 4.5898-4.3398-4.8594c-0.48438-0.54297-1.2812-0.67969-1.9219-0.32812-5.8203 3.207-13.18 2.1602-17.844-2.4922l-13.059-14.402c-0.62891-0.6875-0.60156-1.75 0.050781-2.4062z"/>
 </g>
<text x="0.0" y="117.5" font-size="5.0" font-weight="bold" font-family="Arbeit Regular, Helvetica, Arial-Unicode, Arial, Sans-serif" fill="#000000">Created by Soekahurip</text><text x="0.0" y="122.5" font-size="5.0" font-weight="bold" font-family="Arbeit Regular, Helvetica, Arial-Unicode, Arial, Sans-serif" fill="#000000">from Noun Project</text></svg>