<svg xmlns="http://www.w3.org/2000/svg" data-name="Layer 1" viewBox="0 0 512 640" x="0px" y="0px"><title>630-Binoculars</title><path d="M257.29,284.42a25.51,25.51,0,1,1,25.51-25.51A25.53,25.53,0,0,1,257.29,284.42Zm0-35.71a10.2,10.2,0,1,0,10.2,10.2A10.22,10.22,0,0,0,257.29,248.71Z"/><path d="M218.51,350.35a7.09,7.09,0,0,1-.79,0,7.64,7.64,0,0,1-6.83-8.4l5.49-53.5A7.65,7.65,0,1,1,231.61,290l-5.49,53.5A7.66,7.66,0,0,1,218.51,350.35ZM37.57,293.91a7.81,7.81,0,0,1-2.27-.34,7.65,7.65,0,0,1-5-9.58L66.94,165.7c17.93-57.76,73-74.48,116.64-65.58,17.7,3.61,33.43,11.47,44.31,22.11,12.42,12.16,18.11,27.15,16.46,43.36l-5.92,57.7a7.66,7.66,0,1,1-15.24-1.56l5.92-57.7c2.7-26.38-22.46-43.57-48.59-48.9-37.07-7.57-83.85,6.45-99,55.11L44.88,288.52A7.65,7.65,0,0,1,37.57,293.91Z"/><path d="M119.22,449.66A107,107,0,1,1,226.16,342.72,107.06,107.06,0,0,1,119.22,449.66Zm0-198.59a91.64,91.64,0,1,0,91.63,91.65A91.74,91.74,0,0,0,119.22,251.07Z"/><path d="M224.61,137.5h-.53a7.66,7.66,0,0,1-7.12-8.16l.08-1.27c1.74-26.7-16.23-42.93-34.82-47.17-18.85-4.3-45.58,2.36-58.86,35.29a7.66,7.66,0,1,1-14.2-5.73C125,71.27,159,59.88,185.62,66a60.91,60.91,0,0,1,34.17,21.23c9.23,11.61,13.56,26.1,12.53,41.89l-.08,1.29A7.66,7.66,0,0,1,224.61,137.5Z"/><path d="M257.29,311.59a52.67,52.67,0,1,1,52.65-52.68A52.73,52.73,0,0,1,257.29,311.59Zm0-90a37.36,37.36,0,1,0,37.34,37.34A37.38,37.38,0,0,0,257.29,221.57Z"/><path d="M296.06,350.35a7.65,7.65,0,0,1-7.6-6.88L283,290a7.65,7.65,0,1,1,15.23-1.56l5.49,53.5a7.66,7.66,0,0,1-6.84,8.4A6.85,6.85,0,0,1,296.06,350.35ZM477,293.91a7.66,7.66,0,0,1-7.31-5.39L433,170.24c-15.11-48.66-61.89-62.68-98.95-55.11-26.13,5.33-51.29,22.52-48.6,48.9l5.92,57.7a7.65,7.65,0,1,1-15.23,1.56l-5.92-57.7c-1.66-16.21,4-31.2,16.46-43.36,10.87-10.64,26.61-18.5,44.3-22.11,43.61-8.9,98.71,7.82,116.64,65.58L484.32,284a7.66,7.66,0,0,1-5.05,9.58A7.76,7.76,0,0,1,477,293.91Z"/><path d="M395.35,449.66A107,107,0,1,1,502.29,342.72,107.06,107.06,0,0,1,395.35,449.66Zm0-198.59A91.64,91.64,0,1,0,487,342.72,91.74,91.74,0,0,0,395.35,251.07Z"/><path d="M290,137.5a7.65,7.65,0,0,1-7.63-7.13l-.09-1.27c-1-15.81,3.3-30.3,12.53-41.91A60.94,60.94,0,0,1,329,66c26.69-6.09,60.67,5.31,76.47,44.49a7.66,7.66,0,0,1-14.21,5.73c-13.27-32.93-40-39.59-58.86-35.29-18.58,4.24-36.56,20.47-34.82,47.19l.09,1.25a7.66,7.66,0,0,1-7.12,8.16Z"/><path d="M278.1,174.77a7.67,7.67,0,0,1-3.55-.88,37.49,37.49,0,0,0-34.52,0,7.66,7.66,0,1,1-7.11-13.56,52.73,52.73,0,0,1,48.74,0,7.66,7.66,0,0,1-3.56,14.44Z"/><path d="M296.93,363.46a7.57,7.57,0,0,1-4.23-1.28c-9.72-6.46-22.3-10-35.41-10s-25.69,3.56-35.41,10a7.66,7.66,0,1,1-8.48-12.75c12.2-8.12,27.79-12.58,43.89-12.58s31.68,4.46,43.89,12.58a7.66,7.66,0,0,1-4.25,14Z"/><path d="M119.22,416a73.24,73.24,0,1,1,73.24-73.24A73.32,73.32,0,0,1,119.22,416Zm0-131.16a57.93,57.93,0,1,0,57.93,57.92A58,58,0,0,0,119.22,284.8Z"/><path d="M395.35,416a73.24,73.24,0,1,1,73.24-73.24A73.32,73.32,0,0,1,395.35,416Zm0-131.16a57.93,57.93,0,1,0,57.93,57.92A58,58,0,0,0,395.35,284.8Z"/><path d="M119.22,251.07a7.65,7.65,0,0,1-7.2-10.25l49.57-137.6a7.65,7.65,0,1,1,14.4,5.19L126.43,246A7.67,7.67,0,0,1,119.22,251.07Z"/><path d="M395.35,251.07a7.65,7.65,0,0,1-7.2-5.06l-49.57-137.6A7.66,7.66,0,1,1,353,103.22l49.57,137.6a7.65,7.65,0,0,1-7.21,10.25Z"/><path d="M413.47,358.34a7.66,7.66,0,0,1-6.64-3.83l-21.3-36.91a7.66,7.66,0,0,1,13.26-7.66l21.31,36.92a7.65,7.65,0,0,1-6.63,11.48Z"/><path d="M429.77,337.67a7.66,7.66,0,0,1-6.64-3.83l-11.55-20a7.65,7.65,0,1,1,13.26-7.65l11.56,20a7.65,7.65,0,0,1-6.63,11.48Z"/><path d="M101.1,358.34a7.65,7.65,0,0,1-6.62-11.48l21.3-36.92a7.66,7.66,0,0,1,13.27,7.66l-21.31,36.91A7.65,7.65,0,0,1,101.1,358.34Z"/><path d="M84.8,337.67a7.65,7.65,0,0,1-6.62-11.48l11.55-20A7.66,7.66,0,1,1,103,313.8l-11.56,20A7.65,7.65,0,0,1,84.8,337.67Z"/><text x="0" y="527" fill="#000000" font-size="5px" font-weight="bold" font-family="'Helvetica Neue', Helvetica, Arial-Unicode, Arial, Sans-serif">Created by perilous graphic</text><text x="0" y="532" fill="#000000" font-size="5px" font-weight="bold" font-family="'Helvetica Neue', Helvetica, Arial-Unicode, Arial, Sans-serif">from the Noun Project</text></svg>